<?xml version="1.0" encoding="utf-8"?>
<!-- Generator: Adobe Illustrator 24.3.0, SVG Export Plug-In . SVG Version: 6.00 Build 0)  -->
<svg version="1.1" id="Layer_1" xmlns="http://www.w3.org/2000/svg" xmlns:xlink="http://www.w3.org/1999/xlink" x="0px" y="0px"
	 viewBox="0 0 772.1 145.1" style="enable-background:new 0 0 772.1 145.1;" xml:space="preserve">
<style type="text/css">
	.st0{fill:url(#SVGID_1_);}
	.st1{fill:#FFFFFF;}
</style>
<linearGradient id="SVGID_1_" gradientUnits="userSpaceOnUse" x1="0" y1="72.5318" x2="772.1395" y2="72.5318">
	<stop  offset="0" style="stop-color:#5FC1D0"/>
	<stop  offset="0.4409" style="stop-color:#78539F"/>
	<stop  offset="0.5795" style="stop-color:#7C539E"/>
	<stop  offset="1" style="stop-color:#CA4893"/>
</linearGradient>
<path class="st0" d="M759.2,145.1H12.9c-7.1,0-12.9-5.8-12.9-12.9V12.9C0,5.8,5.8,0,12.9,0h746.3c7.1,0,12.9,5.8,12.9,12.9v119.2
	C772.1,139.3,766.4,145.1,759.2,145.1z"/>
<g>
	<path class="st1" d="M87,52.2v17.1h30v12H87v23.6H72V40.1h49v12H87z"/>
	<path class="st1" d="M144.4,101.7c-5.4-2.9-9.6-6.9-12.7-12c-3.1-5.1-4.6-10.8-4.6-17.2c0-6.4,1.5-12.1,4.6-17.2
		c3.1-5.1,7.3-9.1,12.7-12c5.4-2.9,11.5-4.4,18.2-4.4c6.7,0,12.8,1.5,18.1,4.4c5.4,2.9,9.6,6.9,12.7,12c3.1,5.1,4.6,10.8,4.6,17.2
		c0,6.4-1.5,12.1-4.6,17.2c-3.1,5.1-7.3,9.1-12.7,12c-5.4,2.9-11.4,4.4-18.1,4.4C155.8,106,149.8,104.6,144.4,101.7z M172.9,90.6
		c3.1-1.8,5.5-4.2,7.3-7.4c1.8-3.1,2.6-6.7,2.6-10.7c0-4-0.9-7.6-2.6-10.7c-1.8-3.1-4.2-5.6-7.3-7.4c-3.1-1.8-6.5-2.6-10.4-2.6
		c-3.8,0-7.3,0.9-10.4,2.6c-3.1,1.8-5.5,4.2-7.3,7.4c-1.8,3.1-2.6,6.7-2.6,10.7c0,4,0.9,7.6,2.6,10.7c1.8,3.1,4.2,5.6,7.3,7.4
		c3.1,1.8,6.5,2.6,10.4,2.6C166.4,93.3,169.8,92.4,172.9,90.6z"/>
	<path class="st1" d="M222.5,101.7c-5.4-2.9-9.6-6.9-12.7-12c-3.1-5.1-4.6-10.8-4.6-17.2c0-6.4,1.5-12.1,4.6-17.2
		c3.1-5.1,7.3-9.1,12.7-12c5.4-2.9,11.5-4.4,18.2-4.4c6.7,0,12.8,1.5,18.1,4.4c5.4,2.9,9.6,6.9,12.7,12c3.1,5.1,4.6,10.8,4.6,17.2
		c0,6.4-1.5,12.1-4.6,17.2c-3.1,5.1-7.3,9.1-12.7,12c-5.4,2.9-11.4,4.4-18.1,4.4C234,106,227.9,104.6,222.5,101.7z M251.1,90.6
		c3.1-1.8,5.5-4.2,7.3-7.4c1.8-3.1,2.6-6.7,2.6-10.7c0-4-0.9-7.6-2.6-10.7c-1.8-3.1-4.2-5.6-7.3-7.4c-3.1-1.8-6.5-2.6-10.4-2.6
		c-3.8,0-7.3,0.9-10.4,2.6c-3.1,1.8-5.5,4.2-7.3,7.4c-1.8,3.1-2.6,6.7-2.6,10.7c0,4,0.9,7.6,2.6,10.7c1.8,3.1,4.2,5.6,7.3,7.4
		c3.1,1.8,6.5,2.6,10.4,2.6C244.5,93.3,248,92.4,251.1,90.6z"/>
	<path class="st1" d="M287.5,40.1h29.4c7,0,13.3,1.3,18.7,4c5.4,2.7,9.6,6.5,12.6,11.3c3,4.9,4.5,10.6,4.5,17s-1.5,12.2-4.5,17
		c-3,4.9-7.2,8.7-12.6,11.3c-5.4,2.7-11.6,4-18.7,4h-29.4V40.1z M316.2,92.6c6.5,0,11.7-1.8,15.5-5.4c3.9-3.6,5.8-8.5,5.8-14.7
		c0-6.2-1.9-11.1-5.8-14.7c-3.9-3.6-9-5.4-15.5-5.4h-13.7v40.2H316.2z"/>
	<path class="st1" d="M377,101.7c-5.3-2.9-9.5-6.9-12.6-11.9s-4.6-10.8-4.6-17.3c0-6.4,1.5-12.2,4.6-17.3c3.1-5.1,7.3-9.1,12.6-11.9
		c5.3-2.9,11.3-4.3,18-4.3c5.6,0,10.7,1,15.2,3c4.5,2,8.3,4.8,11.4,8.5l-9.6,8.9c-4.4-5.1-9.8-7.6-16.3-7.6c-4,0-7.6,0.9-10.7,2.6
		c-3.1,1.8-5.6,4.2-7.4,7.4c-1.8,3.1-2.6,6.7-2.6,10.7c0,4,0.9,7.6,2.6,10.7c1.8,3.1,4.2,5.6,7.4,7.4c3.1,1.8,6.7,2.6,10.7,2.6
		c6.5,0,11.9-2.6,16.3-7.7l9.6,8.9c-3.1,3.8-6.9,6.6-11.5,8.6c-4.6,2-9.7,3-15.3,3C388.4,106,382.4,104.6,377,101.7z"/>
	<path class="st1" d="M445,101.7c-5.4-2.9-9.6-6.9-12.7-12c-3.1-5.1-4.6-10.8-4.6-17.2c0-6.4,1.5-12.1,4.6-17.2
		c3.1-5.1,7.3-9.1,12.7-12c5.4-2.9,11.5-4.4,18.2-4.4c6.7,0,12.8,1.5,18.1,4.4c5.4,2.9,9.6,6.9,12.7,12c3.1,5.1,4.6,10.8,4.6,17.2
		c0,6.4-1.5,12.1-4.6,17.2c-3.1,5.1-7.3,9.1-12.7,12c-5.4,2.9-11.4,4.4-18.1,4.4C456.5,106,450.4,104.6,445,101.7z M473.6,90.6
		c3.1-1.8,5.5-4.2,7.3-7.4c1.8-3.1,2.6-6.7,2.6-10.7c0-4-0.9-7.6-2.6-10.7c-1.8-3.1-4.2-5.6-7.3-7.4c-3.1-1.8-6.5-2.6-10.4-2.6
		c-3.8,0-7.3,0.9-10.4,2.6c-3.1,1.8-5.5,4.2-7.3,7.4c-1.8,3.1-2.6,6.7-2.6,10.7c0,4,0.9,7.6,2.6,10.7c1.8,3.1,4.2,5.6,7.3,7.4
		c3.1,1.8,6.5,2.6,10.4,2.6C467,93.3,470.5,92.4,473.6,90.6z"/>
	<path class="st1" d="M517.1,98.4c-5.2-5.1-7.7-12.4-7.7-21.9V40.1h15v35.7c0,11.6,4.8,17.4,14.4,17.4c4.7,0,8.3-1.4,10.7-4.2
		c2.5-2.8,3.7-7.2,3.7-13.2V40.1h14.8v36.3c0,9.5-2.6,16.8-7.7,21.9c-5.2,5.1-12.4,7.7-21.6,7.7C529.5,106,522.3,103.5,517.1,98.4z"
		/>
	<path class="st1" d="M624.2,104.9l-12.5-18.1H611h-13.1v18.1h-15V40.1H611c5.7,0,10.7,1,15,2.9c4.2,1.9,7.5,4.6,9.8,8.1
		c2.3,3.5,3.4,7.7,3.4,12.5s-1.2,9-3.5,12.5c-2.3,3.5-5.6,6.2-9.9,8l14.5,20.8H624.2z M620.4,55.3c-2.3-1.9-5.8-2.9-10.3-2.9h-12.2
		v22.6h12.2c4.5,0,7.9-1,10.3-3c2.3-2,3.5-4.8,3.5-8.3C623.9,60,622.8,57.2,620.4,55.3z"/>
	<path class="st1" d="M664.4,52.3h-20.7V40.1h56.5v12.2h-20.7v52.6h-15V52.3z"/>
</g>
</svg>
